Results
version=1
nRows=14
nColumns=24
inDegrees=yes
endheader
time	pelvis_tilt	pelvis_list	pelvis_rotation	pelvis_tx	pelvis_ty	pelvis_tz	hip_flexion_r	hip_adduction_r	hip_rotation_r	knee_angle_r	ankle_angle_r	subtalar_angle_r	mtp_angle_r	hip_flexion_l	hip_adduction_l	hip_rotation_l	knee_angle_l	ankle_angle_l	subtalar_angle_l	mtp_angle_l	lumbar_extension	lumbar_bending	lumbar_rotation
      0.52500000	     -1.11673268	      6.85653867	     -3.92853408	     -0.84173338	      1.05858664	      0.36118153	     25.29972454	     -1.98043504	     -7.21470802	     -2.48253815	      0.13035224	      0.73910881	      0.02652237	    -13.31914514	     12.79257113	      0.38456372	     -4.38021761	      5.61069259	     -6.93420074	     -0.25853608	      4.83478061	     -4.30674922	      0.62656594
      0.52916667	     -1.15497947	      6.83245796	     -3.98203937	     -0.83598635	      1.05811247	      0.36134220	     25.27403359	     -1.87284391	     -7.17790892	     -2.65703642	      0.11311613	      0.74632338	      0.02781986	    -13.41254668	     12.78236746	      0.45228616	     -4.75527620	      5.59425292	     -6.95263204	     -0.26473000	      4.86257335	     -4.29031439	      0.62006374
      0.53333333	     -1.14484482	      6.84170055	     -4.02341644	     -0.83034621	      1.05771700	      0.36138810	     25.21367375	     -1.82440614	     -7.11323257	     -2.88186837	      0.08349937	      0.74692333	      0.03087162	    -13.52864636	     12.81745698	      0.52125513	     -5.18113087	      5.58094040	     -7.01127683	     -0.27898240	      4.93396983	     -4.22873777	      0.60598036
      0.53750000	     -1.14709637	      6.83096657	     -4.07089804	     -0.82457802	      1.05735415	      0.36143108	     25.15530093	     -1.75771025	     -7.01755746	     -3.15697163	      0.04037264	      0.73748386	      0.03428450	    -13.61541360	     12.82951336	      0.60758749	     -5.64772213	      5.56059821	     -7.08199578	     -0.29312392	      4.98547119	     -4.16956721	      0.59464713
      0.54166667	     -1.18008812	      6.84483526	     -4.19354785	     -0.81883287	      1.05689524	      0.36147827	     25.14905940	     -1.69353175	     -6.71670349	     -3.47976944	     -0.14878131	      0.58929610	      0.05078075	    -13.67138421	     12.89157775	      0.78833341	     -6.08566857	      5.49565386	     -7.42641966	     -0.36057033	      4.98301034	     -4.06191409	      0.56606407
      0.54583333	     -1.17240039	      6.80971357	     -4.19770853	     -0.81296501	      1.05662464	      0.36144856	     25.05698317	     -1.63179983	     -6.62235386	     -3.80261184	     -0.19999908	      0.55974810	      0.05413089	    -13.74742479	     12.86487075	      0.84035129	     -6.61010463	      5.43167519	     -7.47047257	     -0.37112958	      5.06508630	     -4.03523449	      0.57272202
      0.55000000	     -1.21011101	      6.81574365	     -4.31061403	     -0.80716019	      1.05622560	      0.36151431	     25.04284257	     -1.56905178	     -6.27766221	     -4.16305771	     -0.56154723	      0.25155420	      0.07349469	    -13.74914287	     12.90679499	      0.88523945	     -7.12938571	      5.15928540	     -7.69450930	     -0.43168603	      5.07294332	     -3.92939776	      0.58173645
      0.55416667	     -1.18918873	      6.76308779	     -4.31907777	     -0.80120919	      1.05604885	      0.36144097	     24.92255466	     -1.50444076	     -6.15409536	     -4.51820308	     -0.63307296	      0.21037677	      0.07782562	    -13.80367038	     12.86166853	      0.92861672	     -7.72383726	      5.10133492	     -7.72806360	     -0.43956696	      5.16666935	     -3.88695612	      0.59146831
      0.55833333	     -1.17033426	      6.72288079	     -4.34353613	     -0.79528897	      1.05588502	      0.36134955	     24.81198759	     -1.45701243	     -5.99878879	     -4.89722500	     -0.76805996	      0.15996079	      0.08183615	    -13.82845695	     12.83324631	      0.94799753	     -8.35529239	      5.00864671	     -7.75246495	     -0.44625262	      5.23016172	     -3.79320334	      0.59057835
      0.56250000	     -1.23850111	      6.67150052	     -4.50240575	     -0.78923063	      1.05555213	      0.36151977	     24.79146279	     -1.32484079	     -5.58748568	     -5.24153656	     -1.43895319	     -0.20461272	      0.09893937	    -13.73730060	     12.80708442	      0.71906447	     -8.98569624	      4.62214074	     -7.75996904	     -0.46907663	      5.19362681	     -3.57998681	      0.59351260
      0.56666667	     -1.23131387	      6.57009337	     -4.59759052	     -0.78306139	      1.05544388	      0.36175703	     24.63133942	     -1.16789464	     -5.18647766	     -5.52399833	     -1.98517720	     -0.80145724	      0.13312312	    -13.70975529	     12.69468193	      0.43357541	     -9.68033477	      4.32315278	     -7.66298679	     -0.47731946	      5.38096012	     -3.53192392	      0.69308813
      0.57083333	     -1.19306018	      6.51970836	     -4.62637309	     -0.77711978	      1.05541823	      0.36158470	     24.49104453	     -1.13867703	     -5.04747259	     -5.92441783	     -2.07744814	     -0.83061814	      0.13856417	    -13.68925233	     12.65294180	      0.45454792	    -10.42612507	      4.25155318	     -7.64706521	     -0.47541097	      5.44008809	     -3.41468262	      0.69235595
      0.57500000	     -1.21824472	      6.41568200	     -4.80279615	     -0.77097061	      1.05528900	      0.36207748	     24.35975821	     -0.93564780	     -4.42385933	     -6.18322375	     -2.85080734	     -1.79995733	      0.24133193	    -13.55608426	     12.52499925	     -0.07451626	    -11.22864179	      4.01559178	     -7.06333052	     -0.38179481	      5.47361023	     -3.20100988	      0.87075895
      0.57916667	     -1.17324580	      6.34028198	     -4.80684595	     -0.76497992	      1.05538123	      0.36188477	     24.19511761	     -0.90471342	     -4.33729568	     -6.56819576	     -2.97826429	     -1.77583048	      0.24788561	    -13.48602840	     12.43798569	     -0.15190015	    -12.08166236	      3.88095928	     -7.05156667	     -0.37568417	      5.52649562	     -3.08136585	      0.86536805
